PathFileType	4	(X/Y/Z)	PS_ngait_og_ss9.trc	
DataRate	CameraRate	NumFrames	NumMarkers	Units	OrigDataRate	OrigDataStartFrame	OrigNumFrames	
120.00	120.00	7	39	mm	120.00	602	130	
Frame#	Time	Sternum			Neck			RShoulder			LShoulder			Xiphoid			Thoracic			RAsis			LAsis			RPsis			LPsis			LThighSuperior			LThighInferior			LThighLateral			LShankSuperior			LShankInferior			LShankLateral			RThighSuperior			RThighInferior			RThighLateral			RShankSuperior			RShankInferior			RShankLateral			RHeel			RToe			RMidfootMedial			RMidfootLateral			RHindfoot			RMidfootSuperior			RToeMedial			RToeLateral			LHeel			LToe			LMidfootMedial			LMidfootLateral			LHindfoot			LMidfootSuperior			LToeMedial			LToeLateral			Sacral			
		X1	Y1	Z1	X2	Y2	Z2	X3	Y3	Z3	X4	Y4	Z4	X5	Y5	Z5	X6	Y6	Z6	X7	Y7	Z7	X8	Y8	Z8	X9	Y9	Z9	X10	Y10	Z10	X11	Y11	Z11	X12	Y12	Z12	X13	Y13	Z13	X14	Y14	Z14	X15	Y15	Z15	X16	Y16	Z16	X17	Y17	Z17	X18	Y18	Z18	X19	Y19	Z19	X20	Y20	Z20	X21	Y21	Z21	X22	Y22	Z22	X23	Y23	Z23	X24	Y24	Z24	X25	Y25	Z25	X26	Y26	Z26	X27	Y27	Z27	X28	Y28	Z28	X29	Y29	Z29	X30	Y30	Z30	X31	Y31	Z31	X32	Y32	Z32	X33	Y33	Z33	X34	Y34	Z34	X35	Y35	Z35	X36	Y36	Z36	X37	Y37	Z37	X38	Y38	Z38	X39	Y39	Z39	

98	0.808	895.71021	1454.11194	185.78079	732.06555	1548.67993	211.05510	793.55798	1529.13171	364.49072	747.32611	1542.02551	66.35307	932.70306	1295.59595	181.65799	654.10040	1329.49292	217.85097	863.83820	1030.41614	320.45840	844.33197	1022.87958	48.05715	668.23578	1047.16809	255.80510	654.71954	1040.25269	153.91585	805.92920	850.72064	-6.84088	888.49762	631.96698	-7.90244	944.20032	751.01831	35.02697	817.41284	417.46790	1.82066	688.12793	296.08853	47.95322	791.25122	340.91995	68.94170	812.99323	829.16388	370.17673	832.30640	590.83997	336.03012	910.23053	750.07288	299.36795	812.78540	431.06412	340.79663	803.15619	177.46770	298.31622	861.58667	303.64090	261.72562	712.69495	66.47345	242.28197	1029.36035	51.66079	253.77173	933.16089	33.47102	202.73538	928.12286	30.73133	320.36243	875.11871	31.66535	311.62344	895.84351	94.96746	252.77368	976.49072	36.44904	206.23848	977.16931	37.50108	309.71286	558.71155	256.27667	126.54983	777.93567	51.39950	48.97010	699.99506	93.27186	124.12724	669.52191	93.03489	14.85647	632.76025	127.52074	32.94820	713.18280	157.03223	70.89175	732.05249	67.95319	111.15218	711.49646	73.18247	9.32121	661.47766	1043.71045	204.86047 
99	0.817	903.79700	1454.66199	186.15149	740.06903	1549.28503	211.22267	801.58087	1530.13123	364.73532	755.62231	1542.39929	66.56010	940.76746	1296.13831	182.35367	662.09100	1330.13269	218.23949	871.53723	1030.83337	321.00827	852.49921	1023.66418	48.67365	676.04535	1047.76453	256.06964	662.70374	1040.98523	154.21278	815.38477	852.02081	-6.54914	900.78729	634.57043	-8.14022	954.93256	754.29248	35.25666	833.11469	418.14236	1.62976	708.90106	292.38797	47.52052	809.84332	340.01712	68.45358	819.89160	829.78107	369.78406	835.23163	590.92151	336.15125	916.46649	749.81433	299.17319	814.27844	431.31430	340.73203	803.62061	177.67007	298.30453	862.83478	303.73056	261.91476	712.77509	66.50925	242.25124	1029.44885	51.51423	253.79677	933.25037	33.42853	202.89735	928.15686	30.68808	320.31754	875.29486	31.72588	311.61792	895.97668	94.96108	252.92268	976.51599	36.34838	206.31927	977.29871	37.42084	309.79272	580.59222	247.89806	126.09396	806.37964	50.76919	48.09981	728.79565	90.22352	123.50445	696.04761	89.60103	13.78154	659.33350	121.57876	32.62872	738.02301	154.52257	70.17348	760.73981	66.07897	110.77769	738.97687	70.82831	9.17424	669.37457	1044.37488	205.14120 
100	0.825	911.85040	1455.08533	186.51225	748.17682	1549.79639	211.33466	809.62988	1530.94861	364.90826	763.85645	1542.67297	66.61832	948.81763	1296.57642	182.84496	670.12744	1330.70642	218.59120	879.20752	1031.43494	321.53687	860.69592	1024.38501	49.13779	683.82355	1048.30017	256.26022	670.69086	1041.64185	154.30916	824.65179	852.74524	-5.79073	912.85175	636.72998	-8.04561	965.40924	757.24567	35.48613	848.94141	418.77292	1.30911	729.96973	288.13635	47.14283	828.62396	338.86694	67.93138	824.81775	829.84424	370.32736	838.02014	591.02478	336.19620	920.73053	749.00165	299.91440	815.93591	431.50433	340.63562	804.00677	177.77393	298.30801	864.43701	303.83502	262.30939	712.84393	66.57168	242.20799	1029.50073	51.29243	253.78516	933.34204	33.36694	202.90297	928.22540	30.75092	320.46304	875.21039	31.69144	311.64520	896.11835	95.01230	252.82567	976.55243	36.19006	206.30464	977.30334	37.35944	309.77725	602.89368	239.22025	125.61076	835.50775	49.75379	47.08985	756.47961	86.95654	122.50175	724.90948	86.31592	12.11540	686.62115	114.42187	32.45337	763.69440	151.62502	69.41391	789.17712	63.54131	109.61410	767.91656	68.67731	7.92315	677.25720	1044.97095	205.28470 
101	0.833	920.01056	1455.35229	186.86674	756.39056	1550.33838	211.29205	817.71118	1531.62488	365.04208	772.22717	1542.86438	66.63676	956.89520	1296.88794	183.38861	678.17523	1331.20898	218.92667	886.84869	1031.67688	321.94788	868.87927	1024.91980	49.62027	691.58630	1048.68811	256.35172	678.67999	1042.19006	154.43729	834.69214	856.17242	-5.28219	924.66071	638.84387	-7.95452	975.53436	759.91034	35.79635	864.92181	419.36328	0.85164	751.29041	283.52457	46.45598	848.27142	336.96161	67.08891	829.99615	829.90173	370.04831	841.02734	590.99017	336.20587	925.24670	748.18329	299.83319	817.54480	431.65094	340.54428	804.39453	177.90367	298.30176	865.73761	303.85992	262.50919	712.31567	66.95580	242.52588	1029.59167	51.06966	253.57465	933.74139	33.47619	202.15169	928.27087	30.73352	320.54614	875.15991	31.66999	311.63889	896.32562	95.12257	251.92853	976.87671	36.17503	205.76997	977.04266	37.17690	309.24695	625.76868	229.86000	124.87302	865.02246	48.99233	45.50878	784.75903	83.43889	121.17371	754.40216	82.02180	10.63201	714.22278	108.81628	31.39910	789.85895	148.53488	68.50639	818.26978	61.04471	108.07739	796.90411	66.05934	6.40241	685.13318	1045.43909	205.39450 
102	0.842	928.12878	1455.46509	187.22032	764.66705	1550.53821	211.39833	825.75775	1532.14587	365.15897	780.73328	1542.89087	66.70648	965.02594	1297.05029	183.96948	686.18927	1331.56116	219.22084	894.37103	1031.96045	322.60144	876.88586	1025.26855	50.00219	699.23535	1049.06702	256.65045	686.53113	1042.53357	154.54114	843.59680	856.29126	-7.07574	936.20947	640.71600	-7.77773	985.66827	762.26306	36.36740	881.07629	419.91370	0.25545	773.20789	278.57690	45.94292	868.89209	335.10760	66.27586	835.93384	830.07953	370.19266	844.07220	590.99048	336.18015	929.98730	747.57990	299.73688	819.47559	431.88889	340.47961	804.89148	178.01891	298.26157	866.73737	303.69012	262.27560	712.58978	66.91538	242.23141	1029.72839	51.27906	253.87578	933.52905	33.40514	202.63547	928.28882	30.69151	320.56290	874.17499	31.35536	311.30746	896.36115	95.03746	252.61844	976.89917	36.24356	206.24165	977.38214	37.29945	309.71710	649.07965	219.77945	123.75674	895.26556	49.74415	43.51442	813.82703	79.84275	119.58833	783.69025	77.76801	8.89162	741.63177	103.81024	29.53508	816.37140	145.46016	67.40611	848.20044	59.14387	106.30312	826.31909	63.98543	4.72947	692.88324	1045.80029	205.59579 
103	0.850	936.34869	1455.37024	187.54524	773.01569	1550.71924	211.45015	833.79742	1532.46997	365.23892	789.20563	1542.78149	66.71655	972.99677	1296.98730	184.34688	694.21027	1331.82996	219.36938	901.89087	1032.17969	322.85855	884.82605	1025.43225	50.31760	706.84601	1049.25439	256.63602	694.34320	1042.82739	154.59996	852.60321	856.92902	-7.99820	947.43909	642.36621	-7.38809	995.33087	764.37573	36.88837	897.41473	420.42004	-0.47560	795.02924	273.55884	44.88920	889.28229	333.59177	66.17033	841.83508	830.15808	370.20972	847.19202	591.00317	336.18210	934.74384	746.73999	299.65823	821.55896	431.91479	340.23441	805.44696	178.08389	298.21906	867.83527	303.51791	262.12762	712.66858	66.89687	242.15601	1029.84753	51.14990	253.94225	933.16437	32.75726	203.14906	928.30505	30.61666	320.55966	875.10498	31.57737	311.58316	896.38428	94.62532	253.13335	976.80865	35.75424	206.65739	977.81494	37.35683	310.12204	673.07684	209.49289	122.26057	925.98114	50.02122	41.64548	843.37372	76.00706	117.71954	813.00909	73.91656	6.67937	770.38751	98.77867	26.55492	843.37445	142.12793	66.05470	878.46014	56.88658	104.41909	856.58521	61.84440	2.84967	700.59460	1046.04089	205.61798 
104	0.858	944.64001	1455.19385	187.80463	781.42010	1550.80811	211.41182	841.94861	1532.68054	365.26816	797.82959	1542.66431	66.70985	981.04102	1296.79517	184.65918	702.21844	1332.01965	219.54599	909.35864	1032.25208	323.16260	892.85529	1025.62134	50.61416	714.44733	1049.30188	256.54544	702.18469	1043.03027	154.54807	861.86865	857.84747	-8.02472	958.47620	643.60114	-6.71207	1004.97668	766.17456	37.69669	913.93500	420.87354	-1.33126	817.39331	268.04691	44.07126	909.58929	331.82669	65.55963	847.87469	830.15479	370.22940	850.46893	590.85071	336.03296	939.45038	745.91150	299.48563	823.52155	431.87515	340.00204	806.03931	178.10580	298.11829	869.18671	303.11444	261.90045	712.70294	67.00101	242.11244	1029.96301	50.99899	253.92152	932.84851	31.96691	203.68414	928.38232	30.54157	320.58542	874.19202	31.40232	311.35767	896.37775	94.10410	253.56671	976.70587	35.14577	207.03491	978.28064	37.43675	310.47952	697.60931	198.88972	120.74976	957.06036	50.27479	39.66605	873.12170	72.59202	115.67082	843.39313	69.75285	4.65129	799.62012	93.33434	24.12827	870.47437	138.97414	64.31438	909.10089	54.93465	102.30849	887.36780	59.46161	0.68852	708.31598	1046.16614	205.54675 
